<svg xmlns="http://www.w3.org/2000/svg" xmlns:xlink="http://www.w3.org/1999/xlink" width="77" height="77" viewBox="0 0 77 77">
  <metadata><?xpacket begin="﻿" id="W5M0MpCehiHzreSzNTczkc9d"?>
<x:xmpmeta xmlns:x="adobe:ns:meta/" x:xmptk="Adobe XMP Core 5.6-c142 79.160924, 2017/07/13-01:06:39        ">
   <rdf:RDF xmlns:rdf="http://www.w3.org/1999/02/22-rdf-syntax-ns#">
      <rdf:Description rdf:about=""/>
   </rdf:RDF>
</x:xmpmeta>
                                                                                                    
                                                                                                    
                                                                                                    
                                                                                                    
                                                                                                    
                                                                                                    
                                                                                                    
                                                                                                    
                                                                                                    
                                                                                                    
                                                                                                    
                                                                                                    
                                                                                                    
                                                                                                    
                                                                                                    
                                                                                                    
                                                                                                    
                                                                                                    
                                                                                                    
                                                                                                    
                           
<?xpacket end="w"?></metadata>
<defs>
    <style>
      .cls-1 {
        fill-rule: evenodd;
        fill: url(#linear-gradient);
      }
    </style>
    <linearGradient id="linear-gradient" x1="38.344" y1="76.188" x2="38.344" y2="0.5" gradientUnits="userSpaceOnUse">
      <stop offset="0" stop-color="#031148"/>
      <stop offset="1" stop-color="#132f44"/>
    </linearGradient>
  </defs>
  <path class="cls-1" d="M38.315,0.5q14.436,0,28.872,0c5.69,0,8.98,3.316,8.982,9.042q0.007,20.855,0,41.71c0,5.8-3.3,9.07-9.12,9.07-5.459,0-10.919.036-16.377-.03A2.035,2.035,0,0,0,48.5,61.66c-1.566,3.3-3.234,6.555-4.867,9.824-0.3.6-.593,1.215-0.941,1.792-2.342,3.888-6.413,3.925-8.694.014-1.159-1.987-2.106-4.1-3.145-6.157-0.937-1.857-1.926-3.692-2.776-5.589A1.9,1.9,0,0,0,26.015,60.3c-5.628.05-11.256,0.035-16.884,0.019-5.225-.015-8.638-3.444-8.643-8.7Q0.471,30.422.488,9.229C0.492,3.886,3.9.506,9.275,0.5Q23.8,0.484,38.315.5Zm6.826,21.678h0.029a53.61,53.61,0,0,0-.044-6.22A6.734,6.734,0,0,0,38.28,10a6.57,6.57,0,0,0-6.713,5.88,87.9,87.9,0,0,0,0,12.438,6.694,6.694,0,0,0,6.723,5.9,6.848,6.848,0,0,0,6.8-5.826A50.137,50.137,0,0,0,45.142,22.175Zm-6.8,17.143a6.9,6.9,0,0,0-6.973,6.939,6.959,6.959,0,0,0,13.917.028A6.9,6.9,0,0,0,38.346,39.318ZM40.859,22c0,1.682.052,3.366-.015,5.046a2.528,2.528,0,1,1-5.043.011q-0.077-4.961.011-9.924A2.6,2.6,0,0,1,38.4,14.411a2.637,2.637,0,0,1,2.441,2.716C40.908,18.751,40.859,20.378,40.859,22Zm-2.4,21.729a2.44,2.44,0,0,1,2.367,2.54A2.5,2.5,0,1,1,35.838,46,2.439,2.439,0,0,1,38.463,43.733Z"/>
</svg>
