<svg xmlns="http://www.w3.org/2000/svg" xmlns:xlink="http://www.w3.org/1999/xlink" width="64" height="78" viewBox="0 0 64 78">
  <metadata><?xpacket begin="﻿" id="W5M0MpCehiHzreSzNTczkc9d"?>
<x:xmpmeta xmlns:x="adobe:ns:meta/" x:xmptk="Adobe XMP Core 5.6-c142 79.160924, 2017/07/13-01:06:39        ">
   <rdf:RDF xmlns:rdf="http://www.w3.org/1999/02/22-rdf-syntax-ns#">
      <rdf:Description rdf:about=""/>
   </rdf:RDF>
</x:xmpmeta>
                                                                                                    
                                                                                                    
                                                                                                    
                                                                                                    
                                                                                                    
                                                                                                    
                                                                                                    
                                                                                                    
                                                                                                    
                                                                                                    
                                                                                                    
                                                                                                    
                                                                                                    
                                                                                                    
                                                                                                    
                                                                                                    
                                                                                                    
                                                                                                    
                                                                                                    
                                                                                                    
                           
<?xpacket end="w"?></metadata>
<defs>
    <style>
      .cls-1 {
        fill-rule: evenodd;
        fill: url(#linear-gradient);
      }
    </style>
    <linearGradient id="linear-gradient" x1="31.984" y1="77.406" x2="31.984" y2="0.781" gradientUnits="userSpaceOnUse">
      <stop offset="0" stop-color="#031148"/>
      <stop offset="1" stop-color="#132f44"/>
    </linearGradient>
  </defs>
  <path class="cls-1" d="M37.2,51.683a3.637,3.637,0,0,0-1.021-.743,12.317,12.317,0,0,0-2.587-.915v6.853a4.86,4.86,0,0,0,3.833-2.024h0a3.134,3.134,0,0,0,.285-2.139A2.152,2.152,0,0,0,37.2,51.683Zm0.218,3.185,0.008-.013h0ZM26.87,40.727a2.574,2.574,0,0,0-.444,1.205,2.892,2.892,0,0,0,.147,1.332,2.137,2.137,0,0,0,.828.913,6.472,6.472,0,0,0,1.231.636c0.359,0.145.763,0.283,1.2,0.417v-6.2A4.726,4.726,0,0,0,26.87,40.727ZM37.456,54.8l-0.028.05h0Zm0.036-.064h0ZM36.007,17.46c5.821-4.9,9.711-15.926,7.317-16.408C40.143,0.411,33.236,3.223,29.9,3.718c-4.735.573-9.892-5.141-12.786-1.956-2.354,2.589,1.687,12,8.009,16.107C6.259,27.15-20.252,73.743,26,77.124,89.994,81.8,57.949,26.5,36.007,17.46Zm5.5,36.746a6.737,6.737,0,0,1-2.6,4.574,9.914,9.914,0,0,1-5.312,1.879v2.007a1.882,1.882,0,1,1-3.764,0V60.472c-0.324-.062-0.646-0.135-0.964-0.223a9.237,9.237,0,0,1-4.6-2.836,8.309,8.309,0,0,1-1.419-2.348c-0.088-.224-0.166-0.452-0.235-0.682a3.5,3.5,0,0,1-.148-0.638,1.882,1.882,0,0,1,3.659-.782c0.072,0.217.12,0.44,0.2,0.655a4.181,4.181,0,0,0,.289.618,4.794,4.794,0,0,0,.826,1.059,5.6,5.6,0,0,0,2.4,1.307V49.146a13.385,13.385,0,0,1-4.936-2.136,5.747,5.747,0,0,1-1.666-2,6.275,6.275,0,0,1-.582-2.7,6.434,6.434,0,0,1,.564-2.732,6.662,6.662,0,0,1,1.544-2.121A9.424,9.424,0,0,1,29.831,35.2V33.119a1.882,1.882,0,1,1,3.764,0v2.072q0.369,0.047.736,0.113a9.292,9.292,0,0,1,4.915,2.388,7.191,7.191,0,0,1,1.5,2.165,6.882,6.882,0,0,1,.266.69,4.193,4.193,0,0,1,.177.672,1.882,1.882,0,0,1-3.619.953c-0.079-.206-0.118-0.424-0.2-0.629a3.333,3.333,0,0,0-.307-0.594,3.6,3.6,0,0,0-.889-0.933A6.1,6.1,0,0,0,33.594,39v7.136a23.874,23.874,0,0,1,3.215.956,7.518,7.518,0,0,1,3.924,3.076c-0.133-.234-0.263-0.462,0,0.008s0.137,0.242.005,0.01A6.73,6.73,0,0,1,41.5,54.206Zm-4.1.7-0.028.05Z"/>
</svg>
